<svg width="11" height="186" viewBox="0 0 11 186" fill="none" xmlns="http://www.w3.org/2000/svg">
<path d="M8.1 182.315C8.1 182.815 8.00667 183.282 7.82 183.715C7.63333 184.149 7.37667 184.532 7.05 184.865C6.71667 185.192 6.33333 185.449 5.9 185.635C5.46667 185.822 5 185.915 4.5 185.915C4 185.915 3.53333 185.822 3.1 185.635C2.66667 185.449 2.28667 185.192 1.96 184.865C1.62667 184.532 1.36667 184.149 1.18 183.715C0.993333 183.282 0.899999 182.815 0.899999 182.315C0.899999 181.815 0.993333 181.349 1.18 180.915C1.36667 180.482 1.62667 180.102 1.96 179.775C2.28667 179.442 2.66667 179.182 3.1 178.995C3.53333 178.809 4 178.715 4.5 178.715C5 178.715 5.46667 178.809 5.9 178.995C6.33333 179.182 6.71667 179.442 7.05 179.775C7.37667 180.102 7.63333 180.482 7.82 180.915C8.00667 181.349 8.1 181.815 8.1 182.315ZM7.62 182.315C7.62 181.882 7.54 181.479 7.38 181.105C7.22 180.725 6.99667 180.392 6.71 180.105C6.42333 179.819 6.09333 179.595 5.72 179.435C5.34 179.275 4.93333 179.195 4.5 179.195C4.06667 179.195 3.66333 179.275 3.29 179.435C2.91 179.595 2.57667 179.819 2.29 180.105C2.00333 180.392 1.78 180.725 1.62 181.105C1.46 181.479 1.38 181.882 1.38 182.315C1.38 182.749 1.46 183.155 1.62 183.535C1.78 183.909 2.00333 184.239 2.29 184.525C2.57667 184.812 2.91 185.035 3.29 185.195C3.66333 185.355 4.06667 185.435 4.5 185.435C4.93333 185.435 5.34 185.355 5.72 185.195C6.09333 185.035 6.42333 184.812 6.71 184.525C6.99667 184.239 7.22 183.909 7.38 183.535C7.54 183.155 7.62 182.749 7.62 182.315ZM6.84 182.335C6.84 182.742 6.74333 183.102 6.55 183.415C6.35667 183.722 6.08333 183.962 5.73 184.135C5.37667 184.309 4.96667 184.395 4.5 184.395C4.02667 184.395 3.61667 184.309 3.27 184.135C2.91667 183.962 2.64333 183.722 2.45 183.415C2.25 183.102 2.15 182.742 2.15 182.335C2.15 181.735 2.36333 181.249 2.79 180.875C2.87 180.795 2.94667 180.755 3.02 180.755C3.09333 180.755 3.15 180.789 3.19 180.855C3.23667 180.922 3.25 180.985 3.23 181.045C3.20333 181.105 3.15667 181.175 3.09 181.255C2.77667 181.529 2.62 181.889 2.62 182.335C2.62 182.809 2.79333 183.192 3.14 183.485C3.48 183.772 3.93333 183.915 4.5 183.915C5.06667 183.915 5.52333 183.772 5.87 183.485C6.21 183.192 6.38 182.809 6.38 182.335C6.38 181.895 6.22333 181.535 5.91 181.255C5.85 181.175 5.81 181.105 5.79 181.045C5.76333 180.985 5.77 180.922 5.81 180.855C5.85 180.789 5.90667 180.755 5.98 180.755C6.05333 180.755 6.13 180.795 6.21 180.875C6.63 181.242 6.84 181.729 6.84 182.335ZM8.11 168.424C8.11 168.851 8.00667 169.231 7.8 169.564C7.58667 169.897 7.29 170.161 6.91 170.354C6.53 170.547 6.09333 170.644 5.6 170.644C5.10667 170.644 4.67333 170.547 4.3 170.354C3.92 170.161 3.62667 169.897 3.42 169.564C3.20667 169.231 3.1 168.851 3.1 168.424C3.1 167.851 3.28667 167.367 3.66 166.974C3.72667 166.887 3.8 166.847 3.88 166.854C3.96 166.861 4.03 166.901 4.09 166.974C4.14333 167.054 4.16667 167.127 4.16 167.194C4.15333 167.254 4.11667 167.327 4.05 167.414C3.79667 167.701 3.67 168.037 3.67 168.424C3.67 168.891 3.84667 169.277 4.2 169.584C4.54667 169.884 5.01333 170.034 5.6 170.034C6.18667 170.034 6.65667 169.884 7.01 169.584C7.36333 169.277 7.54 168.891 7.54 168.424C7.54 168.031 7.41333 167.697 7.16 167.424C7.09333 167.344 7.05667 167.271 7.05 167.204C7.03667 167.131 7.05667 167.054 7.11 166.974C7.17 166.901 7.24 166.861 7.32 166.854C7.39333 166.847 7.46667 166.884 7.54 166.964C7.92 167.364 8.11 167.851 8.11 168.424ZM8.11 162.366C8.11 162.793 8.00333 163.173 7.79 163.506C7.57667 163.839 7.28333 164.103 6.91 164.296C6.53 164.489 6.09333 164.586 5.6 164.586C5.10667 164.586 4.67333 164.489 4.3 164.296C3.92 164.103 3.62333 163.839 3.41 163.506C3.19667 163.173 3.09 162.793 3.09 162.366C3.09 161.933 3.19667 161.549 3.41 161.216C3.62333 160.883 3.92 160.619 4.3 160.426C4.67333 160.233 5.10667 160.136 5.6 160.136C6.09333 160.136 6.53 160.233 6.91 160.426C7.28333 160.619 7.57667 160.883 7.79 161.216C8.00333 161.549 8.11 161.933 8.11 162.366ZM7.54 162.366C7.54 162.053 7.46 161.776 7.3 161.536C7.14 161.289 6.91667 161.096 6.63 160.956C6.33667 160.816 5.99333 160.746 5.6 160.746C5.20667 160.746 4.86667 160.816 4.58 160.956C4.28667 161.096 4.06 161.289 3.9 161.536C3.74 161.776 3.66 162.053 3.66 162.366C3.66 162.833 3.83667 163.219 4.19 163.526C4.53667 163.826 5.00667 163.976 5.6 163.976C6.18667 163.976 6.65667 163.826 7.01 163.526C7.36333 163.219 7.54 162.833 7.54 162.366ZM8.11 155.575C8.11 156.002 8.00667 156.382 7.8 156.715C7.58667 157.049 7.29 157.312 6.91 157.505C6.53 157.699 6.09333 157.795 5.6 157.795C5.10667 157.795 4.67333 157.699 4.3 157.505C3.92 157.312 3.62667 157.049 3.42 156.715C3.20667 156.382 3.1 156.002 3.1 155.575C3.1 155.002 3.28667 154.519 3.66 154.125C3.72667 154.039 3.8 153.999 3.88 154.005C3.96 154.012 4.03 154.052 4.09 154.125C4.14333 154.205 4.16667 154.279 4.16 154.345C4.15333 154.405 4.11667 154.479 4.05 154.565C3.79667 154.852 3.67 155.189 3.67 155.575C3.67 156.042 3.84667 156.429 4.2 156.735C4.54667 157.035 5.01333 157.185 5.6 157.185C6.18667 157.185 6.65667 157.035 7.01 156.735C7.36333 156.429 7.54 156.042 7.54 155.575C7.54 155.182 7.41333 154.849 7.16 154.575C7.09333 154.495 7.05667 154.422 7.05 154.355C7.03667 154.282 7.05667 154.205 7.11 154.125C7.17 154.052 7.24 154.012 7.32 154.005C7.39333 153.999 7.46667 154.035 7.54 154.115C7.92 154.515 8.11 155.002 8.11 155.575ZM8.11 149.517C8.11 149.944 8.00333 150.324 7.79 150.657C7.57667 150.99 7.28333 151.254 6.91 151.447C6.53 151.64 6.09333 151.737 5.6 151.737C5.10667 151.737 4.67333 151.64 4.3 151.447C3.92 151.254 3.62333 150.99 3.41 150.657C3.19666 150.324 3.09 149.944 3.09 149.517C3.09 149.084 3.19666 148.7 3.41 148.367C3.62333 148.034 3.92 147.77 4.3 147.577C4.67333 147.384 5.10666 147.287 5.6 147.287C6.09333 147.287 6.53 147.384 6.91 147.577C7.28333 147.77 7.57666 148.034 7.79 148.367C8.00333 148.7 8.11 149.084 8.11 149.517ZM7.54 149.517C7.54 149.204 7.46 148.927 7.3 148.687C7.14 148.44 6.91666 148.247 6.63 148.107C6.33666 147.967 5.99333 147.897 5.6 147.897C5.20666 147.897 4.86666 147.967 4.58 148.107C4.28666 148.247 4.06 148.44 3.9 148.687C3.74 148.927 3.66 149.204 3.66 149.517C3.66 149.984 3.83666 150.37 4.19 150.677C4.53666 150.977 5.00666 151.127 5.6 151.127C6.18667 151.127 6.65667 150.977 7.01 150.677C7.36333 150.37 7.54 149.984 7.54 149.517ZM8 144.366C8 144.573 7.89 144.676 7.67 144.676L3.54 144.676C3.32 144.676 3.21 144.58 3.21 144.386C3.21 144.193 3.28333 144.096 3.43 144.096L3.96 144.076C3.71333 143.97 3.50666 143.793 3.34 143.546C3.17333 143.3 3.09 143.02 3.09 142.706C3.09 142.32 3.18 142.003 3.36 141.756C3.54 141.503 3.79 141.333 4.11 141.246C3.81666 141.133 3.57333 140.953 3.38 140.706C3.18666 140.46 3.09 140.143 3.09 139.756C3.09 139.263 3.24666 138.876 3.56 138.596C3.86666 138.316 4.33 138.176 4.95 138.176L7.67 138.176C7.89 138.176 8 138.276 8 138.476C8 138.683 7.89 138.786 7.67 138.786L5.04 138.786C4.53333 138.786 4.17666 138.883 3.97 139.076C3.76333 139.27 3.66 139.53 3.66 139.856C3.66 140.11 3.72666 140.333 3.86 140.526C3.98666 140.713 4.15666 140.86 4.37 140.966C4.57666 141.066 4.80333 141.116 5.05 141.116L7.67 141.116C7.89 141.116 8 141.216 8 141.416C8 141.623 7.89 141.726 7.67 141.726L5.04 141.726C4.53333 141.726 4.17666 141.826 3.97 142.026C3.76333 142.22 3.66 142.48 3.66 142.806C3.66 143.06 3.72666 143.283 3.86 143.476C3.99333 143.663 4.16666 143.81 4.38 143.916C4.58666 144.016 4.80666 144.066 5.04 144.066L7.67 144.066C7.89 144.066 8 144.166 8 144.366ZM8.09 134.008C8.09666 134.475 7.99 134.855 7.77 135.148C7.55 135.435 7.23 135.578 6.81 135.578C6.49 135.578 6.21 135.471 5.97 135.258C5.73 135.038 5.54333 134.761 5.41 134.428C5.27 134.088 5.2 133.738 5.2 133.378C5.2 132.885 5.31666 132.495 5.55 132.208L4.73 132.208C4.28333 132.208 3.99333 132.301 3.86 132.488C3.72 132.675 3.65 132.975 3.65 133.388C3.65 133.608 3.68333 133.851 3.75 134.118C3.81666 134.378 3.90333 134.615 4.01 134.828C4.09 135.028 4.06 135.171 3.92 135.258C3.74666 135.358 3.61333 135.305 3.52 135.098C3.39333 134.851 3.29 134.575 3.21 134.268C3.13 133.955 3.09 133.661 3.09 133.388C3.09 132.781 3.20666 132.335 3.44 132.048C3.67333 131.761 4.10333 131.618 4.73 131.618L7.38 131.618C7.46666 131.618 7.52 131.601 7.54 131.568C7.56 131.535 7.57 131.465 7.57 131.358C7.57 131.271 7.58666 131.198 7.62 131.138C7.64666 131.078 7.69333 131.048 7.76 131.048C7.92666 131.048 8.02333 131.131 8.05 131.298C8.06333 131.351 8.07333 131.408 8.08 131.468C8.08666 131.528 8.09 131.585 8.09 131.638C8.09 131.865 8.04333 132.011 7.95 132.078C7.85666 132.145 7.68 132.185 7.42 132.198C7.64666 132.405 7.81333 132.678 7.92 133.018C8.02666 133.358 8.08333 133.688 8.09 134.008ZM7.54 133.978C7.53333 133.658 7.48333 133.361 7.39 133.088C7.29666 132.808 7.16333 132.588 6.99 132.428C6.81 132.261 6.59333 132.185 6.34 132.198C6.13333 132.218 5.98 132.331 5.88 132.538C5.77333 132.745 5.72333 133.011 5.73 133.338C5.73 133.611 5.77666 133.875 5.87 134.128C5.96333 134.381 6.09333 134.588 6.26 134.748C6.42 134.901 6.60666 134.978 6.82 134.978C7.06666 134.978 7.25 134.885 7.37 134.698C7.48333 134.511 7.54 134.271 7.54 133.978ZM8.11 126.969C8.11 127.396 8.02 127.716 7.84 127.929C7.66 128.143 7.33666 128.249 6.87 128.249L3.77 128.249L3.77 128.959C3.77 129.179 3.67333 129.289 3.48 129.289C3.3 129.289 3.21 129.179 3.21 128.959L3.21 128.249L1.78 128.249C1.56 128.249 1.45 128.149 1.45 127.949C1.45 127.749 1.56 127.649 1.78 127.649L3.21 127.649L3.21 126.519C3.21 126.299 3.3 126.189 3.48 126.189C3.67333 126.189 3.77 126.299 3.77 126.519L3.77 127.649L6.77 127.649C7.07 127.649 7.27666 127.586 7.39 127.459C7.49666 127.333 7.55 127.136 7.55 126.869C7.55 126.836 7.55 126.803 7.55 126.769C7.54333 126.729 7.54 126.693 7.54 126.659C7.53333 126.526 7.54 126.416 7.56 126.329C7.57333 126.236 7.64333 126.189 7.77 126.189C7.91666 126.189 8.01 126.269 8.05 126.429C8.09 126.589 8.11 126.769 8.11 126.969ZM8.11 121.71C8.11 122.143 8.01 122.53 7.81 122.87C7.60333 123.203 7.31333 123.466 6.94 123.66C6.56 123.846 6.11333 123.94 5.6 123.94C5.1 123.94 4.66333 123.846 4.29 123.66C3.91666 123.466 3.62666 123.203 3.42 122.87C3.20666 122.536 3.1 122.156 3.1 121.73C3.1 121.296 3.20666 120.93 3.42 120.63C3.63333 120.323 3.90333 120.09 4.23 119.93C4.55666 119.77 4.89 119.69 5.23 119.69C5.35 119.69 5.43333 119.72 5.48 119.78C5.52666 119.833 5.55 119.913 5.55 120.02L5.55 123.33C6.15 123.343 6.63666 123.203 7.01 122.91C7.37666 122.61 7.56 122.206 7.56 121.7C7.56 121.073 7.27666 120.606 6.71 120.3C6.53666 120.166 6.49 120.03 6.57 119.89C6.68333 119.716 6.83333 119.693 7.02 119.82C7.74666 120.24 8.11 120.87 8.11 121.71ZM5.03 123.29L5.03 120.29C4.77 120.323 4.53333 120.406 4.32 120.54C4.10666 120.666 3.93666 120.833 3.81 121.04C3.68333 121.24 3.62 121.47 3.62 121.73C3.62 122.136 3.74666 122.48 4 122.76C4.24666 123.033 4.59 123.21 5.03 123.29ZM8 113.023C8 113.13 7.97 113.203 7.91 113.243C7.85 113.276 7.76666 113.273 7.66 113.233L1.23 110.653C1.07666 110.606 0.999996 110.496 0.999996 110.323L0.999996 110.273C0.999996 110.1 1.07666 109.99 1.23 109.943L7.66 107.353C7.88666 107.28 8 107.35 8 107.563L8 107.663C8 107.823 7.92333 107.933 7.77 107.993L5.89 108.733L5.89 111.863L7.77 112.613C7.92333 112.666 8 112.776 8 112.943L8 113.023ZM5.3 111.653L5.3 108.953L1.87 110.293L5.3 111.653ZM8 104.58C8 104.786 7.89 104.89 7.67 104.89L1.11 104.89C0.889996 104.89 0.779996 104.786 0.779996 104.58C0.779996 104.38 0.889996 104.28 1.11 104.28L7.67 104.28C7.89 104.28 8 104.38 8 104.58ZM8 101.08C8 101.287 7.89 101.39 7.67 101.39L1.11 101.39C0.889996 101.39 0.779996 101.287 0.779996 101.08C0.779996 100.88 0.889996 100.78 1.11 100.78L7.67 100.78C7.89 100.78 8 100.88 8 101.08ZM8 93.2777C8 93.4844 7.89 93.5877 7.67 93.5877L1.32 93.5877C1.1 93.5877 0.989996 93.4777 0.989996 93.2577L0.989995 90.5377C0.989995 89.8777 1.14333 89.3777 1.45 89.0377C1.75666 88.6911 2.21333 88.5177 2.82 88.5177C3.96 88.5177 4.56666 89.1177 4.64 90.3177L7.61 88.7277C7.72333 88.6744 7.81666 88.6611 7.89 88.6877C7.96333 88.7144 8 88.7811 8 88.8877L8 88.9777C8 89.1644 7.92 89.2944 7.76 89.3677L4.65 90.9977L4.65 92.9777L7.67 92.9777C7.89 92.9777 8 93.0777 8 93.2777ZM4.06 92.9777L4.06 90.5877C4.06 90.1077 3.96 89.7511 3.76 89.5177C3.56 89.2777 3.24666 89.1577 2.82 89.1577C2.39333 89.1577 2.08 89.2777 1.88 89.5177C1.68 89.7511 1.58 90.1077 1.58 90.5877L1.58 92.9777L4.06 92.9777ZM8 85.4212C8 85.6212 7.89 85.7212 7.67 85.7212L3.54 85.7212C3.32 85.7212 3.21 85.6212 3.21 85.4212C3.21 85.2212 3.32 85.1212 3.54 85.1212L7.67 85.1212C7.89 85.1212 8 85.2212 8 85.4212ZM2.17 85.4212C2.17 85.5479 2.12666 85.6579 2.04 85.7512C1.94666 85.8446 1.83666 85.8912 1.71 85.8912C1.57666 85.8912 1.46666 85.8446 1.37999 85.7512C1.29333 85.6579 1.25 85.5479 1.25 85.4212C1.25 85.2946 1.29333 85.1879 1.37999 85.1012C1.46666 85.0146 1.57666 84.9712 1.71 84.9712C1.83666 84.9712 1.94666 85.0146 2.04 85.1012C2.12666 85.1879 2.17 85.2946 2.17 85.4212ZM10.16 80.1991C10.16 80.9458 9.90333 81.5458 9.39 81.9991C9.22333 82.1458 9.08 82.1291 8.96 81.9491C8.86 81.8091 8.88666 81.6625 9.04 81.5091C9.4 81.1891 9.58 80.7525 9.58 80.1991C9.58 79.7058 9.41666 79.3291 9.09 79.0691C8.77 78.8091 8.28666 78.6791 7.64 78.6791L6.78 78.6791C7.04 78.8458 7.24666 79.0625 7.4 79.3291C7.54666 79.5958 7.62 79.8991 7.62 80.2391C7.62 80.6458 7.52666 81.0091 7.34 81.3291C7.15333 81.6425 6.89 81.8925 6.55 82.0791C6.21 82.2591 5.81 82.3491 5.35 82.3491C4.89 82.3491 4.49333 82.2591 4.16 82.0791C3.82 81.8925 3.55666 81.6425 3.37 81.3291C3.18333 81.0091 3.09 80.6458 3.09 80.2391C3.09 79.8925 3.17 79.5791 3.33 79.2991C3.49 79.0191 3.72 78.7958 4.01999 78.6291L3.48999 78.6291C3.30333 78.6291 3.20999 78.5391 3.20999 78.3591C3.20999 78.1725 3.31999 78.0791 3.54 78.0791L7.64 78.0791C8.50666 78.0791 9.14333 78.2758 9.55 78.6691C9.95666 79.0558 10.16 79.5658 10.16 80.1991ZM7.06 80.2091C7.06 79.9091 6.99 79.6425 6.85 79.4091C6.70333 79.1758 6.50333 78.9925 6.25 78.8591C5.99 78.7258 5.69 78.6591 5.35 78.6591C5.01 78.6591 4.71333 78.7258 4.46 78.8591C4.20666 78.9925 4.01 79.1758 3.87 79.4091C3.72333 79.6425 3.64999 79.9091 3.65 80.2091C3.65 80.5025 3.72333 80.7658 3.87 80.9991C4.01 81.2258 4.20666 81.4058 4.46 81.5391C4.71333 81.6725 5.01 81.7391 5.35 81.7391C5.69 81.7391 5.99 81.6725 6.25 81.5391C6.50333 81.4058 6.70333 81.2258 6.85 80.9991C6.99 80.7658 7.06 80.5025 7.06 80.2091ZM8 74.8809C8 75.0875 7.89 75.1909 7.67 75.1909L1.11 75.1909C0.889995 75.1909 0.779994 75.0875 0.779994 74.8809C0.779994 74.6809 0.889995 74.5809 1.10999 74.5809L3.88999 74.5809C3.66333 74.4409 3.47333 74.2442 3.31999 73.9909C3.16666 73.7309 3.08999 73.4375 3.08999 73.1109C3.08999 72.5975 3.25333 72.1842 3.57999 71.8709C3.90666 71.5575 4.37333 71.4009 4.97999 71.4009L7.66999 71.4009C7.88999 71.4009 7.99999 71.5009 7.99999 71.7009C7.99999 71.9009 7.88999 72.0009 7.66999 72.0009L5.06999 72.0009C4.60333 72.0009 4.25333 72.1142 4.01999 72.3409C3.78666 72.5609 3.66999 72.8475 3.66999 73.2009C3.66999 73.4675 3.72999 73.7075 3.84999 73.9209C3.96333 74.1275 4.11999 74.2909 4.31999 74.4109C4.51333 74.5242 4.72999 74.5809 4.97 74.5809L7.67 74.5809C7.89 74.5809 8 74.6809 8 74.8809ZM8.10999 66.833C8.10999 67.2596 8.01999 67.5796 7.83999 67.793C7.65999 68.0063 7.33666 68.113 6.86999 68.113L3.76999 68.113L3.76999 68.823C3.76999 69.043 3.67333 69.153 3.47999 69.153C3.29999 69.153 3.20999 69.043 3.20999 68.823L3.20999 68.113L1.77999 68.113C1.55999 68.113 1.44999 68.013 1.44999 67.813C1.44999 67.613 1.55999 67.513 1.77999 67.513L3.20999 67.513L3.20999 66.383C3.20999 66.163 3.29999 66.053 3.47999 66.053C3.67333 66.053 3.76999 66.163 3.76999 66.383L3.76999 67.513L6.76999 67.513C7.06999 67.513 7.27666 67.4496 7.38999 67.323C7.49666 67.1963 7.54999 66.9996 7.54999 66.733C7.54999 66.6996 7.54999 66.6663 7.54999 66.633C7.54333 66.593 7.53999 66.5563 7.53999 66.523C7.53333 66.3896 7.53999 66.2796 7.55999 66.193C7.57333 66.0996 7.64333 66.053 7.76999 66.053C7.91666 66.053 8.00999 66.133 8.04999 66.293C8.08999 66.453 8.10999 66.633 8.10999 66.833ZM8.10999 61.8934C8.10999 62.2601 8.04999 62.5968 7.92999 62.9034C7.80333 63.2034 7.62666 63.4568 7.39999 63.6634C7.32666 63.7501 7.25333 63.7901 7.17999 63.7834C7.09999 63.7768 7.02999 63.7401 6.96999 63.6734C6.86333 63.5468 6.87666 63.4001 7.00999 63.2334C7.18333 63.0801 7.31666 62.8868 7.40999 62.6534C7.50333 62.4134 7.54999 62.1534 7.54999 61.8734C7.54999 61.5468 7.47999 61.2701 7.33999 61.0434C7.19333 60.8101 6.96666 60.6934 6.65999 60.6934C6.38666 60.6934 6.19666 60.8034 6.08999 61.0234C5.98333 61.2434 5.88333 61.5801 5.78999 62.0334C5.72999 62.3134 5.65666 62.5801 5.56999 62.8334C5.48333 63.0801 5.35333 63.2801 5.17999 63.4334C4.99999 63.5868 4.75333 63.6634 4.43999 63.6634C4.15333 63.6634 3.90999 63.5868 3.70999 63.4334C3.50999 63.2734 3.35666 63.0634 3.24999 62.8034C3.14333 62.5434 3.08999 62.2668 3.08999 61.9734C3.08999 61.3201 3.29333 60.8234 3.69999 60.4834C3.76666 60.3901 3.83666 60.3434 3.90999 60.3434C3.98333 60.3434 4.04999 60.3768 4.10999 60.4434C4.17666 60.5101 4.20666 60.5801 4.19999 60.6534C4.18666 60.7201 4.14999 60.7934 4.08999 60.8734C3.79666 61.1201 3.64999 61.4834 3.64999 61.9634C3.64999 62.3101 3.72666 62.5768 3.87999 62.7634C4.02666 62.9501 4.20999 63.0434 4.42999 63.0434C4.67666 63.0434 4.85333 62.9434 4.95999 62.7434C5.05999 62.5368 5.15666 62.2201 5.24999 61.7934C5.31666 61.4934 5.39999 61.2134 5.49999 60.9534C5.59999 60.6868 5.73999 60.4734 5.91999 60.3134C6.09999 60.1534 6.34999 60.0734 6.66999 60.0734C7.09666 60.0734 7.44333 60.2401 7.70999 60.5734C7.97666 60.9001 8.10999 61.3401 8.10999 61.8934ZM7.99999 52.9406C7.99999 53.1473 7.88999 53.2506 7.66999 53.2506L1.31999 53.2506C1.09999 53.2506 0.989994 53.1406 0.989994 52.9206L0.989994 50.2006C0.989994 49.5406 1.14333 49.0406 1.44999 48.7006C1.75666 48.354 2.21333 48.1806 2.81999 48.1806C3.95999 48.1806 4.56666 48.7806 4.63999 49.9806L7.60999 48.3906C7.72333 48.3373 7.81666 48.324 7.88999 48.3506C7.96333 48.3773 7.99999 48.444 7.99999 48.5506L7.99999 48.6406C7.99999 48.8273 7.91999 48.9573 7.75999 49.0306L4.64999 50.6606L4.64999 52.6406L7.66999 52.6406C7.88999 52.6406 7.99999 52.7406 7.99999 52.9406ZM4.05999 52.6406L4.05999 50.2506C4.05999 49.7706 3.95999 49.414 3.75999 49.1806C3.55999 48.9406 3.24666 48.8206 2.81999 48.8206C2.39333 48.8206 2.07999 48.9406 1.87999 49.1806C1.67999 49.414 1.57999 49.7706 1.57999 50.2506L1.57999 52.6406L4.05999 52.6406ZM8.10999 43.8969C8.10999 44.3302 8.00999 44.7169 7.80999 45.0569C7.60333 45.3902 7.31333 45.6535 6.93999 45.8469C6.55999 46.0335 6.11333 46.1269 5.59999 46.1269C5.09999 46.1269 4.66333 46.0335 4.28999 45.8469C3.91666 45.6535 3.62666 45.3902 3.41999 45.0569C3.20666 44.7235 3.09999 44.3435 3.09999 43.9169C3.09999 43.4835 3.20666 43.1169 3.41999 42.8169C3.63333 42.5102 3.90333 42.2769 4.22999 42.1169C4.55666 41.9569 4.88999 41.8769 5.22999 41.8769C5.34999 41.8769 5.43333 41.9069 5.47999 41.9669C5.52666 42.0202 5.54999 42.1002 5.54999 42.2069L5.54999 45.5169C6.14999 45.5302 6.63666 45.3902 7.00999 45.0969C7.37666 44.7969 7.55999 44.3935 7.55999 43.8869C7.55999 43.2602 7.27666 42.7935 6.70999 42.4869C6.53666 42.3535 6.48999 42.2169 6.56999 42.0769C6.68333 41.9035 6.83333 41.8802 7.01999 42.0069C7.74666 42.4269 8.10999 43.0569 8.10999 43.8969ZM5.02999 45.4769L5.02999 42.4769C4.76999 42.5102 4.53333 42.5935 4.31999 42.7269C4.10666 42.8535 3.93666 43.0202 3.80999 43.2269C3.68333 43.4269 3.61999 43.6569 3.61999 43.9169C3.61999 44.3235 3.74666 44.6669 3.99999 44.9469C4.24666 45.2202 4.58999 45.3969 5.02999 45.4769ZM8.10999 37.5727C8.10999 37.9394 8.04999 38.2761 7.92999 38.5827C7.80333 38.8827 7.62666 39.1361 7.39999 39.3427C7.32666 39.4294 7.25333 39.4694 7.17999 39.4627C7.09999 39.4561 7.02999 39.4194 6.96999 39.3527C6.86333 39.2261 6.87666 39.0794 7.00999 38.9127C7.18333 38.7594 7.31666 38.5661 7.40999 38.3327C7.50333 38.0927 7.54999 37.8327 7.54999 37.5527C7.54999 37.2261 7.47999 36.9494 7.33999 36.7227C7.19333 36.4894 6.96666 36.3727 6.65999 36.3727C6.38666 36.3727 6.19666 36.4827 6.08999 36.7027C5.98333 36.9227 5.88333 37.2594 5.78999 37.7127C5.72999 37.9927 5.65666 38.2594 5.56999 38.5127C5.48333 38.7594 5.35333 38.9594 5.17999 39.1127C4.99999 39.2661 4.75333 39.3427 4.43999 39.3427C4.15333 39.3427 3.90999 39.2661 3.70999 39.1127C3.50999 38.9527 3.35666 38.7427 3.24999 38.4827C3.14333 38.2227 3.08999 37.9461 3.08999 37.6527C3.08999 36.9994 3.29333 36.5027 3.69999 36.1627C3.76666 36.0694 3.83666 36.0227 3.90999 36.0227C3.98333 36.0227 4.04999 36.0561 4.10999 36.1227C4.17666 36.1894 4.20666 36.2594 4.19999 36.3327C4.18666 36.3994 4.14999 36.4727 4.08999 36.5527C3.79666 36.7994 3.64999 37.1627 3.64999 37.6427C3.64999 37.9894 3.72666 38.2561 3.87999 38.4427C4.02666 38.6294 4.20999 38.7227 4.42999 38.7227C4.67666 38.7227 4.85333 38.6227 4.95999 38.4227C5.05999 38.2161 5.15666 37.8994 5.24999 37.4727C5.31666 37.1727 5.39999 36.8927 5.49999 36.6327C5.59999 36.3661 5.73999 36.1527 5.91999 35.9927C6.09999 35.8327 6.34999 35.7527 6.66999 35.7527C7.09666 35.7527 7.44333 35.9194 7.70999 36.2527C7.97666 36.5794 8.10999 37.0194 8.10999 37.5727ZM8.10999 31.2727C8.10999 31.706 8.00999 32.0927 7.80999 32.4327C7.60333 32.766 7.31333 33.0293 6.93999 33.2227C6.55999 33.4093 6.11333 33.5027 5.59999 33.5027C5.09999 33.5027 4.66333 33.4093 4.28999 33.2227C3.91666 33.0293 3.62666 32.766 3.41999 32.4327C3.20666 32.0993 3.09999 31.7193 3.09999 31.2927C3.09999 30.8593 3.20666 30.4927 3.41999 30.1927C3.63333 29.886 3.90333 29.6527 4.22999 29.4927C4.55666 29.3327 4.88999 29.2527 5.22999 29.2527C5.34999 29.2527 5.43333 29.2827 5.47999 29.3427C5.52666 29.396 5.54999 29.476 5.54999 29.5827L5.54999 32.8927C6.14999 32.906 6.63666 32.766 7.00999 32.4727C7.37666 32.1727 7.55999 31.7693 7.55999 31.2627C7.55999 30.636 7.27666 30.1693 6.70999 29.8627C6.53666 29.7293 6.48999 29.5927 6.56999 29.4527C6.68333 29.2793 6.83333 29.256 7.01999 29.3827C7.74666 29.8027 8.10999 30.4327 8.10999 31.2727ZM5.02999 32.8527L5.02999 29.8527C4.76999 29.886 4.53333 29.9693 4.31999 30.1027C4.10666 30.2293 3.93666 30.396 3.80999 30.6027C3.68333 30.8027 3.61999 31.0327 3.61999 31.2927C3.61999 31.6993 3.74666 32.0427 3.99999 32.3227C4.24666 32.596 4.58999 32.7727 5.02999 32.8527ZM7.99999 26.2785C7.99999 26.4852 7.88999 26.5885 7.66999 26.5885L3.53999 26.5885C3.31999 26.5885 3.20999 26.4818 3.20999 26.2685C3.20999 26.1885 3.23333 26.1218 3.27999 26.0685C3.31999 26.0085 3.38999 25.9785 3.48999 25.9785L4.03999 25.9785C3.75999 25.8452 3.53333 25.6352 3.35999 25.3485C3.17999 25.0552 3.08999 24.7318 3.08999 24.3785C3.08999 24.2052 3.11666 24.0685 3.16999 23.9685C3.21666 23.8685 3.29999 23.8185 3.41999 23.8185C3.51999 23.8185 3.59333 23.8485 3.63999 23.9085C3.68666 23.9618 3.70666 24.0285 3.69999 24.1085C3.69999 24.1552 3.69666 24.2085 3.68999 24.2685C3.68333 24.3218 3.67999 24.3785 3.67999 24.4385C3.67999 24.7185 3.74666 24.9752 3.87999 25.2085C4.00666 25.4418 4.17999 25.6285 4.39999 25.7685C4.61333 25.9018 4.85666 25.9685 5.12999 25.9685L7.66999 25.9685C7.88999 25.9685 7.99999 26.0718 7.99999 26.2785ZM8.00999 19.7287C8.00999 19.8021 7.98999 19.8721 7.94999 19.9387C7.90333 20.0054 7.83333 20.0554 7.73999 20.0887L3.58999 21.7287C3.47666 21.7754 3.38666 21.7821 3.31999 21.7487C3.24666 21.7087 3.20999 21.6354 3.20999 21.5287C3.20999 21.3354 3.29666 21.2087 3.46999 21.1487L7.12999 19.7387L3.46999 18.3687C3.29666 18.2954 3.20999 18.1687 3.20999 17.9887C3.20999 17.8887 3.24666 17.8221 3.31999 17.7887C3.38666 17.7554 3.47666 17.7587 3.58999 17.7987L7.72999 19.3787C7.91666 19.4521 8.00999 19.5687 8.00999 19.7287ZM8.10999 13.4594C8.10999 13.8927 8.00999 14.2794 7.80999 14.6194C7.60333 14.9527 7.31333 15.216 6.93999 15.4094C6.55999 15.596 6.11333 15.6894 5.59999 15.6894C5.09999 15.6894 4.66333 15.596 4.28999 15.4094C3.91666 15.216 3.62666 14.9527 3.41999 14.6194C3.20666 14.286 3.09999 13.906 3.09999 13.4794C3.09999 13.046 3.20666 12.6794 3.41999 12.3794C3.63333 12.0727 3.90333 11.8394 4.22999 11.6794C4.55666 11.5194 4.88999 11.4394 5.22999 11.4394C5.34999 11.4394 5.43333 11.4694 5.47999 11.5294C5.52666 11.5827 5.54999 11.6627 5.54999 11.7694L5.54999 15.0794C6.14999 15.0927 6.63666 14.9527 7.00999 14.6594C7.37666 14.3594 7.55999 13.956 7.55999 13.4494C7.55999 12.8227 7.27666 12.356 6.70999 12.0494C6.53666 11.916 6.48999 11.7794 6.56999 11.6394C6.68333 11.466 6.83333 11.4427 7.01999 11.5694C7.74666 11.9894 8.10999 12.6194 8.10999 13.4594ZM5.02999 15.0394L5.02999 12.0394C4.76999 12.0727 4.53333 12.156 4.31999 12.2894C4.10666 12.416 3.93666 12.5827 3.80999 12.7894C3.68333 12.9894 3.61999 13.2194 3.61999 13.4794C3.61999 13.886 3.74666 14.2294 3.99999 14.5094C4.24666 14.7827 4.58999 14.9594 5.02999 15.0394ZM8.10999 6.82523C8.10999 7.25189 8.00666 7.63189 7.79999 7.96523C7.58666 8.29856 7.29333 8.56189 6.91999 8.75523C6.53999 8.94856 6.09999 9.04523 5.59999 9.04523C5.09999 9.04523 4.66333 8.94856 4.28999 8.75523C3.91666 8.56189 3.62666 8.29856 3.41999 7.96523C3.20666 7.63189 3.09999 7.25189 3.09999 6.82523C3.09999 6.46523 3.18666 6.14523 3.35999 5.86523C3.52666 5.58523 3.75666 5.36189 4.04999 5.19523L1.10999 5.19523C0.889992 5.19523 0.779991 5.09523 0.779991 4.89523C0.779991 4.68856 0.889992 4.58523 1.10999 4.58523L7.66999 4.58523C7.88999 4.58523 7.99999 4.67856 7.99999 4.86523C7.99999 5.05189 7.92999 5.14523 7.78999 5.14523L7.11999 5.15523C7.42666 5.32856 7.66999 5.55856 7.84999 5.84523C8.02333 6.13189 8.10999 6.45856 8.10999 6.82523ZM7.53999 6.80523C7.53999 6.49189 7.45999 6.21523 7.29999 5.97523C7.13999 5.72856 6.91666 5.53523 6.62999 5.39523C6.33666 5.25523 5.99333 5.18523 5.59999 5.18523C5.20666 5.18523 4.86666 5.25523 4.57999 5.39523C4.29333 5.53523 4.06999 5.72856 3.90999 5.97523C3.74999 6.21523 3.66999 6.49189 3.66999 6.80523C3.66999 7.11856 3.74999 7.39856 3.90999 7.64523C4.06999 7.89189 4.29333 8.08523 4.57999 8.22523C4.86666 8.36523 5.20666 8.43523 5.59999 8.43523C5.99333 8.43523 6.33666 8.36523 6.62999 8.22523C6.91666 8.08523 7.13999 7.89189 7.29999 7.64523C7.45999 7.39856 7.53999 7.11856 7.53999 6.80523ZM8.10999 1.21164C8.10999 1.37164 8.05666 1.50497 7.94999 1.61164C7.83666 1.71831 7.70666 1.77164 7.55999 1.77164C7.40666 1.77164 7.27666 1.71831 7.16999 1.61164C7.05666 1.50497 6.99999 1.37164 6.99999 1.21164C6.99999 1.05831 7.05666 0.928307 7.16999 0.82164C7.27666 0.714973 7.40666 0.66164 7.55999 0.66164C7.70666 0.66164 7.83666 0.714973 7.94999 0.82164C8.05666 0.928307 8.10999 1.05831 8.10999 1.21164Z" fill="#555555"/>
</svg>
