<svg width="100" height="945" viewBox="0 0 100 945" fill="none" xmlns="http://www.w3.org/2000/svg">
<g clip-path="url(#clip0_0_1)">
<path d="M-1175 10C-1191.67 -3.33333 -1208.33 -3.33333 -1225 10L-1225 945H215V3.5C201.74 -2.77739 188.26 -0.610718 175 10C158.33 23.3333 141.67 23.3333 125 10C108.33 -3.33333 91.67 -3.33333 75 10C58.33 23.3333 41.67 23.3333 25 10C8.32996 -3.33333 -8.32996 -3.33333 -25 10C-41.67 23.3333 -58.33 23.3333 -75 10C-91.67 -3.33333 -108.33 -3.33333 -125 10C-141.67 23.3333 -158.33 23.3333 -175 10C-191.67 -3.33333 -208.33 -3.33333 -225 10C-241.667 23.3333 -258.333 23.3333 -275 10C-291.667 -3.33333 -308.333 -3.33333 -325 10C-341.667 23.3333 -358.333 23.3333 -375 10C-391.667 -3.33333 -408.333 -3.33333 -425 10C-441.667 23.3333 -458.333 23.3333 -475 10C-491.667 -3.33333 -508.333 -3.33333 -525 10C-541.667 23.3333 -558.333 23.3333 -575 10C-591.667 -3.33333 -608.333 -3.33333 -625 10C-641.667 23.3333 -658.333 23.3333 -675 10C-691.667 -3.33333 -708.333 -3.33333 -725 10C-741.666 23.3333 -758.333 23.3333 -775 10C-791.666 -3.33333 -808.333 -3.33333 -825 10C-841.666 23.3333 -858.333 23.3333 -875 10C-891.666 -3.33333 -908.333 -3.33333 -925 10C-941.666 23.3333 -958.333 23.3333 -975 10C-991.666 -3.33333 -1008.33 -3.33333 -1025 10C-1041.67 23.3333 -1058.33 23.3333 -1075 10C-1091.67 -3.33333 -1108.33 -3.33333 -1125 10C-1141.67 23.3333 -1158.33 23.3333 -1175 10Z" fill="#EDF8F6"/>
</g>
<defs>
<clipPath id="clip0_0_1">
<rect width="1440" height="945" fill="white" transform="translate(-1225)"/>
</clipPath>
</defs>
</svg>
