<svg width="32" height="32" viewBox="0 0 32 32" fill="none" xmlns="http://www.w3.org/2000/svg">
<circle cx="15.9996" cy="16" r="16" fill="#8ECFC4"/>
<path d="M15.9996 13.1362C14.4227 13.1362 13.1357 14.4231 13.1357 16.0001C13.1357 17.577 14.4227 18.8639 15.9996 18.8639C17.5766 18.8639 18.8635 17.577 18.8635 16.0001C18.8635 14.4231 17.5766 13.1362 15.9996 13.1362ZM24.5891 16.0001C24.5891 14.8141 24.5998 13.6389 24.5332 12.4551C24.4666 11.0801 24.1529 9.85982 23.1475 8.85435C22.1399 7.84673 20.9217 7.53521 19.5467 7.46861C18.3608 7.40201 17.1856 7.41275 16.0018 7.41275C14.8158 7.41275 13.6406 7.40201 12.4568 7.46861C11.0818 7.53521 9.86153 7.84888 8.85606 8.85435C7.84844 9.86197 7.53692 11.0801 7.47032 12.4551C7.40372 13.6411 7.41446 14.8163 7.41446 16.0001C7.41446 17.1838 7.40372 18.3612 7.47032 19.545C7.53692 20.92 7.85059 22.1403 8.85606 23.1458C9.86368 24.1534 11.0818 24.4649 12.4568 24.5315C13.6428 24.5981 14.818 24.5874 16.0018 24.5874C17.1877 24.5874 18.3629 24.5981 19.5467 24.5315C20.9217 24.4649 22.142 24.1512 23.1475 23.1458C24.1551 22.1381 24.4666 20.92 24.5332 19.545C24.602 18.3612 24.5891 17.186 24.5891 16.0001ZM15.9996 20.4065C13.5611 20.4065 11.5932 18.4385 11.5932 16.0001C11.5932 13.5616 13.5611 11.5936 15.9996 11.5936C18.4381 11.5936 20.4061 13.5616 20.4061 16.0001C20.4061 18.4385 18.4381 20.4065 15.9996 20.4065ZM20.5865 12.4422C20.0172 12.4422 19.5574 11.9825 19.5574 11.4131C19.5574 10.8438 20.0172 10.384 20.5865 10.384C21.1559 10.384 21.6156 10.8438 21.6156 11.4131C21.6158 11.5483 21.5893 11.6822 21.5376 11.8072C21.486 11.9321 21.4102 12.0456 21.3146 12.1412C21.219 12.2368 21.1055 12.3126 20.9806 12.3642C20.8556 12.4159 20.7217 12.4424 20.5865 12.4422Z" fill="white"/>
</svg>
