<svg width="32" height="32" viewBox="0 0 32 32" fill="none" xmlns="http://www.w3.org/2000/svg">
<circle cx="15.9996" cy="16" r="16" fill="#8ECFC4"/>
<g clip-path="url(#clip0_0_321)">
<path d="M23.9996 11.039C23.4046 11.3 22.7706 11.473 22.1096 11.557C22.7896 11.151 23.3086 10.513 23.5526 9.744C22.9186 10.122 22.2186 10.389 21.4726 10.538C20.8706 9.897 20.0126 9.5 19.0766 9.5C17.2606 9.5 15.7986 10.974 15.7986 12.781C15.7986 13.041 15.8206 13.291 15.8746 13.529C13.1476 13.396 10.7346 12.089 9.11363 10.098C8.83063 10.589 8.66463 11.151 8.66463 11.756C8.66463 12.892 9.24963 13.899 10.1216 14.482C9.59463 14.472 9.07763 14.319 8.63963 14.078C8.63963 14.088 8.63963 14.101 8.63963 14.114C8.63963 15.708 9.77663 17.032 11.2676 17.337C11.0006 17.41 10.7096 17.445 10.4076 17.445C10.1976 17.445 9.98563 17.433 9.78663 17.389C10.2116 18.688 11.4176 19.643 12.8516 19.674C11.7356 20.547 10.3186 21.073 8.78463 21.073C8.51563 21.073 8.25763 21.061 7.99963 21.028C9.45263 21.965 11.1746 22.5 13.0316 22.5C19.0676 22.5 22.3676 17.5 22.3676 13.166C22.3676 13.021 22.3626 12.881 22.3556 12.742C23.0066 12.28 23.5536 11.703 23.9996 11.039Z" fill="white"/>
</g>
<defs>
<clipPath id="clip0_0_321">
<rect width="16" height="16" fill="white" transform="translate(7.99963 8)"/>
</clipPath>
</defs>
</svg>
